<svg width="25" height="25" viewBox="0 0 25 25" fill="none" xmlns="http://www.w3.org/2000/svg">
<path d="M21.4502 10.9899V11.9899H20.4502V12.9899H19.4502V13.9899H18.4502V14.9899H17.4502V15.9899H16.4502V16.9899H15.4502V17.9899H14.4502V18.9899H13.4502V19.9899H12.4502V20.9899H11.4502V21.9899H10.4502V22.9899H9.4502V23.9899H8.4502V21.9899H9.4502V18.9899H10.4502V14.9899H3.4502V13.9899H4.4502V12.9899H5.4502V11.9899H6.4502V10.9899H7.4502V9.98987H8.4502V8.98987H9.4502V7.98987H10.4502V6.98987H11.4502V5.98987H12.4502V4.98987H13.4502V3.98987H14.4502V2.98987H15.4502V1.98987H16.4502V3.98987H15.4502V6.98987H14.4502V10.9899H21.4502Z" fill="white"/>
</svg>
