<svg width="31" height="32" viewBox="0 0 31 32" fill="none" xmlns="http://www.w3.org/2000/svg">
<g filter="url(#filter0_d_85_5636)">
<path d="M25.8052 9.53186V7.53186H24.8052V5.53186H23.8052V4.53186H22.8052V3.53186H20.8052V2.53186H18.8052V1.53186H12.8052V2.53186H10.8052V3.53186H8.80518V4.53186H7.80518V5.53186H6.80518V7.53186H5.80518V9.53186H4.80518V15.5319H5.80518V17.5319H6.80518V19.5319H7.80518V20.5319H8.80518V21.5319H10.8052V22.5319H12.8052V23.5319H18.8052V22.5319H20.8052V21.5319H22.8052V20.5319H23.8052V19.5319H24.8052V17.5319H25.8052V15.5319H26.8052V9.53186H25.8052ZM16.8052 16.5319V15.5319H15.8052V14.5319H14.8052V5.53186H16.8052V13.5319H17.8052V14.5319H18.8052V15.5319H19.8052V16.5319H18.8052V17.5319H17.8052V16.5319H16.8052Z" fill="#00D0FF"/>
</g>
<defs>
<filter id="filter0_d_85_5636" x="-0.194824" y="0.53186" width="32" height="32" filterUnits="userSpaceOnUse" color-interpolation-filters="sRGB">
<feFlood flood-opacity="0" result="BackgroundImageFix"/>
<feColorMatrix in="SourceAlpha" type="matrix" values="0 0 0 0 0 0 0 0 0 0 0 0 0 0 0 0 0 0 127 0" result="hardAlpha"/>
<feOffset dy="4"/>
<feGaussianBlur stdDeviation="2"/>
<feComposite in2="hardAlpha" operator="out"/>
<feColorMatrix type="matrix" values="0 0 0 0 0 0 0 0 0 0 0 0 0 0 0 0 0 0 0.25 0"/>
<feBlend mode="normal" in2="BackgroundImageFix" result="effect1_dropShadow_85_5636"/>
<feBlend mode="normal" in="SourceGraphic" in2="effect1_dropShadow_85_5636" result="shape"/>
</filter>
</defs>
</svg>
