<svg width="25" height="24" viewBox="0 0 25 24" fill="none" xmlns="http://www.w3.org/2000/svg">
<path fill-rule="evenodd" clip-rule="evenodd" d="M15.0557 5C16.3399 5.22326 17.5887 5.61757 18.7692 6.17252C20.8065 9.22941 21.8188 12.677 21.445 16.6536C19.8862 17.8246 18.3742 18.5351 16.8877 19C16.5196 18.4929 16.1939 17.9524 15.9122 17.3859C16.4465 17.1817 16.9615 16.9298 17.4511 16.6333C17.323 16.5368 17.1975 16.437 17.0746 16.3339C14.1482 17.7258 10.9301 17.7258 7.96839 16.3339C7.84601 16.4376 7.72042 16.5375 7.5918 16.6333C8.08056 16.929 8.59461 17.1804 9.12784 17.3844C8.84777 17.9487 8.52149 18.4886 8.1524 18.9986C6.66726 18.5337 5.15667 17.8232 3.59791 16.6536C3.27939 13.2233 3.91649 9.74372 6.26662 6.17542C7.44763 5.61868 8.69753 5.22336 9.98299 5C10.1444 5.29057 10.3355 5.68146 10.4643 5.9923C11.8235 5.78312 13.1954 5.78312 14.5799 5.9923C14.7088 5.68139 14.8957 5.29057 15.0557 5ZM15.5215 14.5C14.6324 14.5 13.9032 13.666 13.9032 12.6504C13.9032 11.6349 14.6168 10.7995 15.5215 10.7995C16.4262 10.7995 17.1553 11.6334 17.1397 12.6504C17.1411 13.666 16.4262 14.5 15.5215 14.5ZM9.53137 14.544C8.64227 14.544 7.91313 13.71 7.91313 12.6945C7.91313 11.6789 8.62673 10.8435 9.53137 10.8435C10.4361 10.8435 11.1652 11.6774 11.1496 12.6945C11.151 13.71 10.4361 14.544 9.53137 14.544Z" fill="white"/>
</svg>
