<svg width="437" height="420" viewBox="0 0 437 420" fill="none" xmlns="http://www.w3.org/2000/svg">
<path d="M414.975 170.073L414.975 243.884L414.975 251.682L412.978 251.682L412.978 253.632L410.981 253.632L410.981 255.582L408.984 255.582L408.984 257.531L406.987 257.531L406.987 259.481L398.999 259.481L391.011 259.481" stroke="#FF6289"/>
<path d="M253.773 79.1443L399.38 79.1443H407.178V81.1413H409.128V83.1383H411.077V85.1353H413.027V87.1323H414.976V95.1203V186.484" stroke="#FF6289"/>
<path d="M390.586 79.1594L244.979 79.1594H237.181V77.1623H235.231V75.1654H233.282V73.1684H231.332V71.1714H229.383V63.1834V1.0298" stroke="#FF6289"/>
<path d="M302.83 408.886L302.83 275.071L302.83 267.273L304.827 267.273L304.827 265.323L306.824 265.323L306.824 263.374L308.821 263.374L308.821 261.424L310.818 261.424L310.818 259.475L318.806 259.475L396.558 259.475" stroke="#FF6289"/>
<path d="M344.882 297.823L420.693 297.823L428.491 297.823L428.491 299.82L430.441 299.82L430.441 301.817L432.39 301.817L432.39 303.814L434.34 303.814L434.34 305.811L436.29 305.811L436.29 313.799L436.29 402.926" stroke="#FF6289"/>
<path d="M386.019 297.823L351.358 297.823L343.559 297.823L343.559 299.82L341.61 299.82L341.61 301.817L339.66 301.817L339.66 303.814L337.711 303.814L337.711 305.811L335.761 305.811L335.761 313.799L335.761 419.453" stroke="#FF6289"/>
<path d="M327.203 279.056L420.693 279.056L428.491 279.056L428.491 277.059L430.441 277.059L430.441 275.062L432.39 275.062L432.39 273.065L434.34 273.065L434.34 271.068L436.29 271.068L436.29 263.08L436.29 180.499" stroke="#FF6289"/>
<path d="M428.383 279.056L334.892 279.056L327.094 279.056L327.094 281.053L325.144 281.053L325.144 283.05L323.195 283.05L323.195 285.047L321.245 285.047L321.245 287.044L319.296 287.044L319.296 295.032L319.295 407.618" stroke="#FF6289"/>
<path d="M22.1812 170.073L22.1813 243.884L22.1813 251.682L24.1783 251.682L24.1783 253.632L26.1753 253.632L26.1753 255.582L28.1723 255.582L28.1723 257.531L30.1693 257.531L30.1693 259.481L38.1573 259.481L46.1453 259.481" stroke="#00D0FF"/>
<path d="M183.383 79.1443L37.7762 79.1443H29.9779V81.1413H28.0284V83.1383H26.0788V85.1353H24.1292V87.1323H22.1797L22.1797 172.309V180.297" stroke="#00D0FF"/>
<path d="M46.5702 79.1594L192.177 79.1594H199.975V77.1624H201.925V75.1654H203.874V73.1684H205.824V71.1714H207.773V63.1834V0.9375" stroke="#00D0FF"/>
<path d="M134.326 414.804L134.326 275.071L134.326 267.273L132.329 267.273L132.329 265.324L130.332 265.324L130.332 263.374L128.335 263.374L128.335 261.424L126.338 261.424L126.338 259.475L118.35 259.475L40.5985 259.475" stroke="#00D0FF"/>
<path d="M92.2744 297.823L16.4629 297.823L8.66466 297.823L8.66466 299.82L6.71509 299.82L6.71509 301.817L4.76552 301.817L4.76552 303.814L2.81595 303.814L2.81595 305.811L0.866378 305.811L0.866379 313.799L0.866379 403.247" stroke="#00D0FF"/>
<path d="M51.137 297.823L85.7984 297.823L93.5966 297.823L93.5966 299.82L95.5462 299.82L95.5462 301.817L97.4958 301.817L97.4958 303.814L99.4454 303.814L99.4454 305.811L101.395 305.811L101.395 313.799L101.395 416.917" stroke="#00D0FF"/>
<path d="M109.953 279.056L16.463 279.056L8.66473 279.056L8.66473 277.059L6.71516 277.059L6.71516 275.062L4.76559 275.062L4.76559 273.065L2.81602 273.065L2.81602 271.068L0.866447 271.068L0.866448 263.08L0.86644 180.499" stroke="#00D0FF"/>
<path d="M8.77345 279.056L102.264 279.056L110.062 279.056L110.062 281.053L112.012 281.053L112.012 283.05L113.961 283.05L113.961 285.047L115.911 285.047L115.911 287.044L117.86 287.044L117.86 295.032L117.86 415.226" stroke="#00D0FF"/>
<path d="M368.519 330.68H370.269V342.93H368.519V341.18H366.769V332.43H368.519V330.68Z" fill="#FF6289"/>
<path d="M398.269 325.43H396.519V323.68H387.769V318.43H384.269V323.68H375.519V325.43H373.769V327.18H372.019V344.68H373.769V346.43H375.519V348.18H396.519V346.43H398.269V344.68H400.019V327.18H398.269V325.43ZM394.769 335.93H389.519V330.68H394.769V335.93ZM387.769 342.93H384.269V341.18H387.769V342.93ZM377.269 341.18H382.519V342.93H377.269V341.18ZM377.269 330.68H382.519V335.93H377.269V330.68ZM389.519 342.93V341.18H394.769V342.93H389.519Z" fill="#FF6289"/>
<path d="M405.269 332.43V341.18H403.519V342.93H401.769V330.68H403.519V332.43H405.269Z" fill="#FF6289"/>
<path d="M42.3871 328.93H40.6371V321.93H42.3871V318.43H44.1371V316.68H47.6371V314.93H54.6371V316.68H58.1371V318.43H59.8871V321.93H61.6371V328.93H59.8871V332.43H58.1371V334.18H54.6371V335.93H47.6371V334.18H44.1371V332.43H42.3871V328.93Z" fill="#00D0FF"/>
<path d="M68.6371 346.43V351.68H66.8871V353.43H35.3871V351.68H33.6371V346.43H35.3871V344.68H37.1371V342.93H38.8871V341.18H42.3871V339.43H59.8871V341.18H63.3871V342.93H65.1371V344.68H66.8871V346.43H68.6371Z" fill="#00D0FF"/>
</svg>
