<svg width="24" height="24" viewBox="0 0 24 24" fill="none" xmlns="http://www.w3.org/2000/svg">
<path d="M10.3931 6.4751V8.4751H5.39307V19.4751H16.3931V14.4751H18.3931V20.4751C18.3931 20.7403 18.2877 20.9947 18.1002 21.1822C17.9126 21.3697 17.6583 21.4751 17.3931 21.4751H4.39307C4.12785 21.4751 3.8735 21.3697 3.68596 21.1822C3.49842 20.9947 3.39307 20.7403 3.39307 20.4751V7.4751C3.39307 7.20988 3.49842 6.95553 3.68596 6.76799C3.8735 6.58045 4.12785 6.4751 4.39307 6.4751H10.3931ZM21.3931 3.4751V11.4751H19.3931V6.8881L11.6001 14.6821L10.1861 13.2681L17.9781 5.4751H13.3931V3.4751H21.3931Z" fill="white"/>
</svg>
