<svg width="25" height="24" viewBox="0 0 25 24" fill="none" xmlns="http://www.w3.org/2000/svg">
<path d="M20.5215 5.29993L19.2465 6.64787C19.134 6.74095 19.0809 6.89264 19.1027 7.04088V16.9591C19.0809 17.1108 19.134 17.2625 19.2465 17.3521L20.4965 18.7001V19H14.2215V18.7139L15.5121 17.3314C15.6402 17.1901 15.6402 17.1487 15.6402 16.9384V8.91283L12.0465 18.9655H11.5621L7.38086 8.91283V15.6526C7.34336 15.9352 7.43398 16.2214 7.61523 16.4248L9.29648 18.669V18.969H4.52148V18.669L6.20273 16.4248C6.29131 16.3238 6.35724 16.2014 6.39522 16.0673C6.43321 15.9332 6.4422 15.7912 6.42148 15.6526V7.86136C6.44336 7.64418 6.36836 7.43388 6.21836 7.28564L4.72461 5.29993V5H9.36523L12.9465 13.6703L16.0996 5.0069H20.5215V5.29993Z" fill="white"/>
</svg>
