<svg width="33" height="33" viewBox="0 0 33 33" fill="none" xmlns="http://www.w3.org/2000/svg">
<circle cx="16.5215" cy="16.5" r="16" fill="#F7F9FB"/>
<path d="M26.1332 6.5L17.7993 12.75L19.3491 9.06667L26.1332 6.5Z" fill="#E17726" stroke="#E17726" stroke-width="0.25" stroke-linecap="round" stroke-linejoin="round"/>
<path d="M6.91016 6.5L15.1698 12.8083L13.6943 9.06666L6.91016 6.5Z" fill="#E27625" stroke="#E27625" stroke-width="0.25" stroke-linecap="round" stroke-linejoin="round"/>
<path d="M23.1324 20.9917L20.915 24.425L25.6631 25.75L27.0233 21.0668L23.1324 20.9917Z" fill="#E27625" stroke="#E27625" stroke-width="0.25" stroke-linecap="round" stroke-linejoin="round"/>
<path d="M6.02783 21.0668L7.37971 25.75L12.1196 24.425L9.91037 20.9917L6.02783 21.0668Z" fill="#E27625" stroke="#E27625" stroke-width="0.25" stroke-linecap="round" stroke-linejoin="round"/>
<path d="M11.8643 15.1914L10.5454 17.2081L15.244 17.4248L15.0874 12.2998L11.8643 15.1914Z" fill="#E27625" stroke="#E27625" stroke-width="0.25" stroke-linecap="round" stroke-linejoin="round"/>
<path d="M21.179 15.1917L17.9065 12.2417L17.7993 17.425L22.4979 17.2084L21.179 15.1917Z" fill="#E27625" stroke="#E27625" stroke-width="0.25" stroke-linecap="round" stroke-linejoin="round"/>
<path d="M12.1196 24.4251L14.9635 23.0334L12.5153 21.1001L12.1196 24.4251Z" fill="#E27625" stroke="#E27625" stroke-width="0.25" stroke-linecap="round" stroke-linejoin="round"/>
<path opacity="0.8" d="M18.0796 23.0334L20.9152 24.4251L20.5278 21.1001L18.0796 23.0334Z" fill="#E27625" stroke="#E27625" stroke-width="0.25" stroke-linecap="round" stroke-linejoin="round"/>
<path d="M20.9152 24.4248L18.0796 23.0332L18.3104 24.8998L18.2856 25.6915L20.9152 24.4248Z" fill="#D5BFB2" stroke="#D5BFB2" stroke-width="0.25" stroke-linecap="round" stroke-linejoin="round"/>
<path d="M12.1196 24.4248L14.7575 25.6915L14.741 24.8998L14.9635 23.0332L12.1196 24.4248Z" fill="#D5BFB2" stroke="#D5BFB2" stroke-width="0.25" stroke-linecap="round" stroke-linejoin="round"/>
<path d="M14.8068 19.8666L12.4492 19.1666L14.1143 18.3916L14.8068 19.8666Z" fill="#233447" stroke="#233447" stroke-width="0.25" stroke-linecap="round" stroke-linejoin="round"/>
<path d="M18.2363 19.8666L18.9288 18.3916L20.6021 19.1666L18.2363 19.8666Z" fill="#233447" stroke="#233447" stroke-width="0.25" stroke-linecap="round" stroke-linejoin="round"/>
<path d="M12.1198 24.425L12.532 20.9917L9.91064 21.0668L12.1198 24.425Z" fill="#CC6228" stroke="#CC6228" stroke-width="0.25" stroke-linecap="round" stroke-linejoin="round"/>
<path d="M20.5112 20.9917L20.9152 24.425L23.1326 21.0668L20.5112 20.9917Z" fill="#CC6228" stroke="#CC6228" stroke-width="0.25" stroke-linecap="round" stroke-linejoin="round"/>
<path d="M22.4979 17.2085L17.7993 17.4252L18.2362 19.8669L18.9286 18.3918L20.602 19.1668L22.4979 17.2085Z" fill="#CC6228" stroke="#CC6228" stroke-width="0.25" stroke-linecap="round" stroke-linejoin="round"/>
<path d="M12.4496 19.1668L14.1147 18.3918L14.8071 19.8669L15.244 17.4252L10.5454 17.2085L12.4496 19.1668Z" fill="#CC6228" stroke="#CC6228" stroke-width="0.25" stroke-linecap="round" stroke-linejoin="round"/>
<path d="M10.5454 17.2085L12.5155 21.1002L12.4496 19.1668L10.5454 17.2085Z" fill="#E27525" stroke="#E27525" stroke-width="0.25" stroke-linecap="round" stroke-linejoin="round"/>
<path d="M20.602 19.1668L20.5278 21.1002L22.498 17.2085L20.602 19.1668Z" fill="#E27525" stroke="#E27525" stroke-width="0.25" stroke-linecap="round" stroke-linejoin="round"/>
<path d="M15.2441 17.4248L14.8071 19.8665L15.3594 22.7498L15.4831 18.9498L15.2441 17.4248Z" fill="#E27525" stroke="#E27525" stroke-width="0.25" stroke-linecap="round" stroke-linejoin="round"/>
<path d="M17.7992 17.4248L17.5684 18.9415L17.6838 22.7498L18.2361 19.8665L17.7992 17.4248Z" fill="#E27525" stroke="#E27525" stroke-width="0.25" stroke-linecap="round" stroke-linejoin="round"/>
<path d="M18.2364 19.8665L17.6841 22.7498L18.0798 23.0332L20.528 21.0998L20.6022 19.1665L18.2364 19.8665Z" fill="#F5841F" stroke="#F5841F" stroke-width="0.25" stroke-linecap="round" stroke-linejoin="round"/>
<path d="M12.4492 19.1665L12.5152 21.0998L14.9634 23.0332L15.3591 22.7498L14.8068 19.8665L12.4492 19.1665Z" fill="#F5841F" stroke="#F5841F" stroke-width="0.25" stroke-linecap="round" stroke-linejoin="round"/>
<path d="M18.2855 25.6915L18.3102 24.8998L18.0959 24.7165H14.9471L14.741 24.8998L14.7575 25.6915L12.1196 24.4248L13.0429 25.1915L14.9141 26.4998H18.1206L20.0001 25.1915L20.9151 24.4248L18.2855 25.6915Z" fill="#C0AC9D" stroke="#C0AC9D" stroke-width="0.25" stroke-linecap="round" stroke-linejoin="round"/>
<path d="M18.0797 23.0333L17.684 22.75H15.3594L14.9638 23.0333L14.7412 24.9L14.9473 24.7166H18.0962L18.3105 24.9L18.0797 23.0333Z" fill="#161616" stroke="#161616" stroke-width="0.25" stroke-linecap="round" stroke-linejoin="round"/>
<path d="M26.4876 13.1583L27.1883 9.70833L26.1331 6.5L18.0796 12.5417L21.179 15.1916L25.5561 16.4833L26.5206 15.3417L26.1002 15.0333L26.7678 14.4167L26.2568 14.0167L26.9245 13.5L26.4876 13.1583Z" fill="#763E1A" stroke="#763E1A" stroke-width="0.25" stroke-linecap="round" stroke-linejoin="round"/>
<path d="M5.85498 9.70833L6.56389 13.1583L6.11052 13.5L6.78646 14.0167L6.27538 14.4167L6.94308 15.0333L6.52268 15.3417L7.48713 16.4833L11.8643 15.1916L14.9637 12.5417L6.91011 6.5L5.85498 9.70833Z" fill="#763E1A" stroke="#763E1A" stroke-width="0.25" stroke-linecap="round" stroke-linejoin="round"/>
<path d="M25.5562 16.483L21.179 15.1914L22.498 17.2081L20.5278 21.0997L23.1327 21.0664H27.0234L25.5562 16.483Z" fill="#F5841F" stroke="#F5841F" stroke-width="0.25" stroke-linecap="round" stroke-linejoin="round"/>
<path d="M11.864 15.1914L7.48687 16.483L6.02783 21.0664H9.91037L12.5152 21.0997L10.5451 17.2081L11.864 15.1914Z" fill="#F5841F" stroke="#F5841F" stroke-width="0.25" stroke-linecap="round" stroke-linejoin="round"/>
<path d="M17.7994 17.4252L18.0797 12.5419L19.3491 9.06689H13.6943L14.9638 12.5419L15.244 17.4252L15.3512 18.9585L15.3594 22.7502H17.684L17.6923 18.9585L17.7994 17.4252Z" fill="#F5841F" stroke="#F5841F" stroke-width="0.25" stroke-linecap="round" stroke-linejoin="round"/>
</svg>
