<svg width="101" height="29" viewBox="0 0 101 29" fill="none" xmlns="http://www.w3.org/2000/svg">
<path d="M12.3468 19.4767C10.9626 19.4767 10.2706 18.3448 10.2706 16.0809C10.2706 14.714 9.96523 13.2189 9.35458 11.5957C8.78463 9.92983 7.97043 8.19986 6.91197 6.40581C6.54558 5.8505 6.19954 5.44471 5.87386 5.18841C5.54818 4.93212 5.30392 4.78262 5.14108 4.7399C4.77468 4.7399 4.59149 5.10298 4.59149 5.82915V25.6278C4.59149 27.6781 3.85871 28.7033 2.39314 28.7033C0.968287 28.7033 0.255859 27.6781 0.255859 25.6278V5.76507C0.255859 2.64684 1.43645 1.08773 3.79764 1.08773H4.95788C6.50487 1.08773 7.92972 2.1129 9.23244 4.16324L12.2857 9.54539L15.4 4.16324C15.97 3.2235 16.5806 2.47598 17.232 1.92068C17.9241 1.36538 18.7179 1.08773 19.6135 1.08773H20.8959C23.2164 1.08773 24.3766 2.64684 24.3766 5.76507V25.6278C24.3766 27.6781 23.6642 28.7033 22.2393 28.7033C20.8145 28.7033 20.1021 27.6781 20.1021 25.6278V5.82915C19.9392 5.10298 19.7153 4.7399 19.4303 4.7399C18.9825 4.7399 18.4126 5.2952 17.7205 6.40581C16.6213 8.19986 15.8071 9.92983 15.2779 11.5957C14.7487 13.2189 14.4841 14.714 14.4841 16.0809C14.4841 18.3448 13.7716 19.4767 12.3468 19.4767Z" fill="white"/>
<path d="M33.2368 28.8955C31.8527 28.8955 31.1606 27.849 31.1606 25.7559L31.0995 3.90695C31.0995 1.89932 31.7916 0.895508 33.1757 0.895508C34.6006 0.895508 35.313 1.92068 35.313 3.97102L35.3741 25.7559C35.3741 27.849 34.6617 28.8955 33.2368 28.8955Z" fill="white"/>
<path d="M71.4622 28.8955C70.078 28.8955 69.386 27.849 69.386 25.7559L69.3249 3.90695C69.3249 1.89932 70.017 0.895508 71.4011 0.895508C72.826 0.895508 73.5384 1.92068 73.5384 3.97102L73.5995 25.7559C73.5995 27.849 72.887 28.8955 71.4622 28.8955Z" fill="white"/>
<path d="M95.9813 22.9367C95.9813 22.5095 96.1441 22.1465 96.4698 21.8475C96.7955 21.5484 97.3451 21.3989 98.1186 21.3989C99.5434 21.3989 100.256 22.0824 100.256 23.4493V24.5385C100.256 27.3578 98.7089 28.7674 95.6149 28.7674H84.6232C81.6513 28.7674 80.1654 27.251 80.1654 24.2182V5.95729C80.1654 2.83906 81.6717 1.27995 84.6842 1.27995H95.6149C98.7089 1.27995 100.256 2.68956 100.256 5.50878V6.46988C100.256 8.00764 99.5434 8.77652 98.1186 8.77652C96.6937 8.77652 95.9813 8.28529 95.9813 7.30283C95.9813 4.95348 94.7396 3.7788 92.2563 3.7788H88.1039C85.6613 3.7788 84.44 4.88941 84.44 7.11061V23.1289C84.44 25.3074 85.6409 26.3967 88.0428 26.3967H92.3784C94.7803 26.3967 95.9813 25.2433 95.9813 22.9367Z" fill="white"/>
<path d="M41.426 28.3393V1.26444H46.8707V5.13227H50.5569V9.0001H54.2432V5.13227H57.9294V1.26444H63.3911V28.3393H57.9294V12.8679H54.2432V20.6036H50.5569V12.8679H46.8707V28.3393H41.426Z" fill="#FF6289"/>
</svg>
