<svg width="43" height="43" viewBox="0 0 43 43" fill="none" xmlns="http://www.w3.org/2000/svg">
<path d="M4.02148 18.2944H5.77148V30.5444H4.02148V28.7944H2.27148V20.0444H4.02148V18.2944Z" fill="#FF6289"/>
<path d="M33.7715 13.0444H32.0215V11.2944H23.2715V6.04443H19.7715V11.2944H11.0215V13.0444H9.27148V14.7944H7.52148V32.2944H9.27148V34.0444H11.0215V35.7944H32.0215V34.0444H33.7715V32.2944H35.5215V14.7944H33.7715V13.0444ZM30.2715 23.5444H25.0215V18.2944H30.2715V23.5444ZM23.2715 30.5444H19.7715V28.7944H23.2715V30.5444ZM12.7715 28.7944H18.0215V30.5444H12.7715V28.7944ZM12.7715 18.2944H18.0215V23.5444H12.7715V18.2944ZM25.0215 30.5444V28.7944H30.2715V30.5444H25.0215Z" fill="#FF6289"/>
<path d="M40.7715 20.0444V28.7944H39.0215V30.5444H37.2715V18.2944H39.0215V20.0444H40.7715Z" fill="#FF6289"/>
</svg>
