<svg width="533" height="52" viewBox="0 0 533 52" fill="none" xmlns="http://www.w3.org/2000/svg">
<path d="M0.372071 50.7679L334.122 50.768L341.92 50.768L341.92 48.771L343.87 48.771L343.87 46.774L345.819 46.774L345.819 44.777L347.769 44.777L347.769 42.78L349.718 42.78L349.718 40.6358" stroke="#6074C6"/>
<path d="M532.048 29.3236L367.819 29.3236L360.02 29.3236L360.02 31.3206L358.071 31.3206L358.071 33.3176L356.121 33.3176L356.121 35.3145L354.172 35.3145L354.172 37.3115L352.222 37.3115L352.222 40.3407L349.719 40.3406L349.719 43.2708" stroke="#6074C6"/>
<path d="M96.4502 0.548644L336.703 0.548654L344.502 0.548654L344.502 2.54566L346.451 2.54566L346.451 4.54265L348.401 4.54265L348.401 6.53965L350.35 6.53965L350.35 8.53664L352.3 8.53664L352.3 11.6658" stroke="#6074C6"/>
<path d="M529.007 19.2088L367.897 19.2088L360.098 19.2088L360.098 17.2118L358.149 17.2118L358.149 15.2148L356.199 15.2148L356.199 13.2178L354.25 13.2178L354.25 11.2208L352.3 11.2208L352.3 8.24437" stroke="#6074C6"/>
</svg>
