<svg width="25" height="24" viewBox="0 0 25 24" fill="none" xmlns="http://www.w3.org/2000/svg">
<path d="M13.4248 7.42231C11.8129 8.14081 8.59065 9.62966 3.75928 11.8874C2.97476 12.2222 2.56317 12.5496 2.52588 12.8696C2.46234 13.4118 3.09493 13.6251 3.95402 13.914C4.07142 13.954 4.19297 13.994 4.31727 14.0384C5.16394 14.3332 6.30203 14.6784 6.89318 14.6917C7.43046 14.7036 8.02989 14.4666 8.69148 13.9806C13.2052 10.7111 15.5352 9.0593 15.6816 9.02375C15.7852 8.99856 15.9289 8.96597 16.0256 9.0593C16.1222 9.15115 16.1126 9.32596 16.1029 9.37337C16.0394 9.65929 13.5615 12.1318 12.277 13.4118C11.8765 13.8103 11.5933 14.0932 11.5353 14.1584C11.4055 14.3021 11.2729 14.4399 11.1458 14.5717C10.3586 15.3836 9.77018 15.9939 11.179 16.9894C11.836 17.454 12.3654 17.8403 12.8899 18.223L12.9372 18.2576C13.527 18.6887 14.1154 19.1183 14.8778 19.6545C15.0712 19.7908 15.2562 19.9316 15.4372 20.0694C16.1236 20.5953 16.741 21.0664 17.5034 20.9923C17.9454 20.9478 18.4039 20.5019 18.636 19.1701C19.1843 16.0206 20.2644 9.20004 20.5144 6.38827C20.5296 6.15481 20.5203 5.92027 20.4868 5.68903C20.4667 5.50227 20.3819 5.33042 20.2492 5.20756C20.0517 5.03423 19.7451 4.9972 19.607 5.00016C18.984 5.01201 18.0283 5.36904 13.4248 7.42231Z" fill="white"/>
</svg>
