<svg width="200" height="34" viewBox="0 0 200 34" fill="none" xmlns="http://www.w3.org/2000/svg">
<path d="M125.159 17.324H23.402V23.5493H125.159V17.324Z" fill="#352969"/>
<mask id="path-2-outside-1_1_15007" maskUnits="userSpaceOnUse" x="-0.473633" y="0" width="200" height="34" fill="black">
<rect fill="white" x="-0.473633" width="200" height="34"/>
<path d="M10.8898 29V8.11601H4.52637V5H23.6166V8.11601H17.2532V29H10.8898Z"/>
<path d="M26.671 17.464V14.348H45.7612V17.464H26.671Z"/>
<path d="M48.9429 29V5H55.3063V14.348H64.8514V5H71.2148V29H64.8514V17.464H55.3063V29H48.9429Z"/>
<path d="M77.5781 29V23.696H74.3964V5H80.7598V23.696H90.3049V5H96.6683V23.696H93.4866V29H77.5781Z"/>
<path d="M99.85 29V5H106.213V8.11601H109.395V11.232H112.577V14.348H115.759V5H122.122V29H115.759V20.58H112.577V17.464H109.395V14.348H106.213V29H99.85Z"/>
<path d="M131.54 29V8.11601H125.176V5H144.267V8.11601H137.903V29H131.54Z"/>
<path d="M147.448 29V5H169.72V8.11601H153.812V14.348H166.538V17.464H153.812V23.696H169.72V29H147.448Z"/>
<path d="M172.902 29V5H191.992V8.11601H195.174V17.464H188.81V20.58H191.992V23.696H195.174V29H185.629V23.696H182.447V20.58H179.265V29H172.902ZM179.265 17.464H185.629V14.348H188.81V8.11601H179.265V17.464Z"/>
</mask>
<path d="M10.8898 29V8.11601H4.52637V5H23.6166V8.11601H17.2532V29H10.8898Z" fill="white"/>
<path d="M26.671 17.464V14.348H45.7612V17.464H26.671Z" fill="white"/>
<path d="M48.9429 29V5H55.3063V14.348H64.8514V5H71.2148V29H64.8514V17.464H55.3063V29H48.9429Z" fill="white"/>
<path d="M77.5781 29V23.696H74.3964V5H80.7598V23.696H90.3049V5H96.6683V23.696H93.4866V29H77.5781Z" fill="white"/>
<path d="M99.85 29V5H106.213V8.11601H109.395V11.232H112.577V14.348H115.759V5H122.122V29H115.759V20.58H112.577V17.464H109.395V14.348H106.213V29H99.85Z" fill="white"/>
<path d="M131.54 29V8.11601H125.176V5H144.267V8.11601H137.903V29H131.54Z" fill="white"/>
<path d="M147.448 29V5H169.72V8.11601H153.812V14.348H166.538V17.464H153.812V23.696H169.72V29H147.448Z" fill="white"/>
<path d="M172.902 29V5H191.992V8.11601H195.174V17.464H188.81V20.58H191.992V23.696H195.174V29H185.629V23.696H182.447V20.58H179.265V29H172.902ZM179.265 17.464H185.629V14.348H188.81V8.11601H179.265V17.464Z" fill="white"/>
<path d="M10.8898 29V8.11601H4.52637V5H23.6166V8.11601H17.2532V29H10.8898Z" stroke="#352969" stroke-width="8.21083" mask="url(#path-2-outside-1_1_15007)"/>
<path d="M26.671 17.464V14.348H45.7612V17.464H26.671Z" stroke="#352969" stroke-width="8.21083" mask="url(#path-2-outside-1_1_15007)"/>
<path d="M48.9429 29V5H55.3063V14.348H64.8514V5H71.2148V29H64.8514V17.464H55.3063V29H48.9429Z" stroke="#352969" stroke-width="8.21083" mask="url(#path-2-outside-1_1_15007)"/>
<path d="M77.5781 29V23.696H74.3964V5H80.7598V23.696H90.3049V5H96.6683V23.696H93.4866V29H77.5781Z" stroke="#352969" stroke-width="8.21083" mask="url(#path-2-outside-1_1_15007)"/>
<path d="M99.85 29V5H106.213V8.11601H109.395V11.232H112.577V14.348H115.759V5H122.122V29H115.759V20.58H112.577V17.464H109.395V14.348H106.213V29H99.85Z" stroke="#352969" stroke-width="8.21083" mask="url(#path-2-outside-1_1_15007)"/>
<path d="M131.54 29V8.11601H125.176V5H144.267V8.11601H137.903V29H131.54Z" stroke="#352969" stroke-width="8.21083" mask="url(#path-2-outside-1_1_15007)"/>
<path d="M147.448 29V5H169.72V8.11601H153.812V14.348H166.538V17.464H153.812V23.696H169.72V29H147.448Z" stroke="#352969" stroke-width="8.21083" mask="url(#path-2-outside-1_1_15007)"/>
<path d="M172.902 29V5H191.992V8.11601H195.174V17.464H188.81V20.58H191.992V23.696H195.174V29H185.629V23.696H182.447V20.58H179.265V29H172.902ZM179.265 17.464H185.629V14.348H188.81V8.11601H179.265V17.464Z" stroke="#352969" stroke-width="8.21083" mask="url(#path-2-outside-1_1_15007)"/>
<path d="M10.8898 28.998V10.3019H4.52637V7.18591H23.6166V10.3019H17.2532V28.998H10.8898Z" fill="#00D0FF"/>
<path d="M26.671 19.6499V16.5339H45.7612V19.6499H26.671Z" fill="#00D0FF"/>
<path d="M48.9429 28.998V7.18591H55.3063V16.5339H64.8514V7.18591H71.2148V28.998H64.8514V19.6499H55.3063V28.998H48.9429Z" fill="#00D0FF"/>
<path d="M77.5781 28.998V25.882H74.3964V7.18591H80.7598V25.882H90.3049V7.18591H96.6683V25.882H93.4866V28.998H77.5781Z" fill="#00D0FF"/>
<path d="M99.85 28.998V7.18591H106.213V10.3019H109.395V13.4179H112.577V16.5339H115.759V7.18591H122.122V28.998H115.759V22.7659H112.577V19.6499H109.395V16.5339H106.213V28.998H99.85Z" fill="#00D0FF"/>
<path d="M131.54 28.998V10.3019H125.176V7.18591H144.267V10.3019H137.903V28.998H131.54Z" fill="#00D0FF"/>
<path d="M147.448 28.998V7.18591H169.72V10.3019H153.812V16.5339H166.538V19.6499H153.812V25.882H169.72V28.998H147.448Z" fill="#00D0FF"/>
<path d="M172.902 28.998V7.18591H191.992V10.3019H195.174V19.6499H188.81V22.7659H191.992V25.882H195.174V28.998H185.629V25.882H182.447V22.7659H179.265V28.998H172.902ZM179.265 19.6499H185.629V16.5339H188.81V10.3019H179.265V19.6499Z" fill="#00D0FF"/>
<path d="M10.8898 26.8121V8.11601H4.52637V5H23.6166V8.11601H17.2532V26.8121H10.8898Z" fill="white"/>
<path d="M26.671 17.464V14.348H45.7612V17.464H26.671Z" fill="white"/>
<path d="M48.9429 26.8121V5H55.3063V14.348H64.8514V5H71.2148V26.8121H64.8514V17.464H55.3063V26.8121H48.9429Z" fill="white"/>
<path d="M77.5781 26.8121V23.696H74.3964V5H80.7598V23.696H90.3049V5H96.6683V23.696H93.4866V26.8121H77.5781Z" fill="white"/>
<path d="M99.85 26.8121V5H106.213V8.11601H109.395V11.232H112.577V14.348H115.759V5H122.122V26.8121H115.759V20.58H112.577V17.464H109.395V14.348H106.213V26.8121H99.85Z" fill="white"/>
<path d="M131.54 26.8121V8.11601H125.176V5H144.267V8.11601H137.903V26.8121H131.54Z" fill="white"/>
<path d="M147.448 26.8121V5H169.72V8.11601H153.812V14.348H166.538V17.464H153.812V23.696H169.72V26.8121H147.448Z" fill="white"/>
<path d="M172.902 26.8121V5H191.992V8.11601H195.174V17.464H188.81V20.58H191.992V23.696H195.174V26.8121H185.629V23.696H182.447V20.58H179.265V26.8121H172.902ZM179.265 17.464H185.629V14.348H188.81V8.11601H179.265V17.464Z" fill="white"/>
<path d="M87.0255 8.10449H198.457V14.3298H87.0255V8.10449Z" fill="#352969"/>
<path d="M84.0343 8.10449H61.5992V14.3298H84.0343V8.10449Z" fill="#352969"/>
<path d="M45.6575 8.10449H58.5877V14.3298H45.6575V8.10449Z" fill="#352969"/>
<path d="M26.7405 8.10449H1.23583V14.3298H26.7405V8.10449Z" fill="#352969"/>
<rect x="4.52637" y="8.10449" width="19.0785" height="2.18167" fill="#00D0FF"/>
<rect x="48.9406" y="8.10449" width="6.36405" height="2.18167" fill="#00D0FF"/>
<rect x="64.8499" y="8.10449" width="6.36405" height="2.18167" fill="#00D0FF"/>
<rect x="74.3956" y="8.10449" width="6.36405" height="2.18167" fill="#00D0FF"/>
<rect x="90.3046" y="8.10449" width="6.36405" height="2.18167" fill="#00D0FF"/>
<rect x="99.8501" y="8.10449" width="6.36405" height="2.18167" fill="#00D0FF"/>
<rect x="115.748" y="8.10449" width="6.36405" height="2.18167" fill="#00D0FF"/>
<rect x="125.159" y="8.10449" width="19.1062" height="2.18167" fill="#00D0FF"/>
<rect x="147.449" y="8.10449" width="22.2698" height="2.18167" fill="#00D0FF"/>
<rect x="172.904" y="8.10449" width="19.0877" height="2.18167" fill="#00D0FF"/>
</svg>
